<?xml version="1.0" encoding="UTF-8" standalone="no"?>
<!-- Created with Inkscape (http://www.inkscape.org/) -->

<svg
   xmlns:dc="http://purl.org/dc/elements/1.1/"
   xmlns:cc="http://creativecommons.org/ns#"
   xmlns:rdf="http://www.w3.org/1999/02/22-rdf-syntax-ns#"
   xmlns:svg="http://www.w3.org/2000/svg"
   xmlns="http://www.w3.org/2000/svg"
   xmlns:sodipodi="http://sodipodi.sourceforge.net/DTD/sodipodi-0.dtd"
   xmlns:inkscape="http://www.inkscape.org/namespaces/inkscape"
   width="16"
   height="128"
   id="svg2"
   version="1.1"
   inkscape:version="0.48.4 r9939"
   sodipodi:docname="New document 1">
  <defs
     id="defs4" />
  <sodipodi:namedview
     id="base"
     pagecolor="#ffffff"
     bordercolor="#666666"
     borderopacity="1.0"
     inkscape:pageopacity="0.0"
     inkscape:pageshadow="2"
     inkscape:zoom="1.979899"
     inkscape:cx="89.815972"
     inkscape:cy="75.720468"
     inkscape:document-units="px"
     inkscape:current-layer="layer1"
     showgrid="false"
     inkscape:snap-page="false"
     inkscape:window-width="1440"
     inkscape:window-height="837"
     inkscape:window-x="1432"
     inkscape:window-y="-8"
     inkscape:window-maximized="1" />
  <metadata
     id="metadata7">
    <rdf:RDF>
      <cc:Work
         rdf:about="">
        <dc:format>image/svg+xml</dc:format>
        <dc:type
           rdf:resource="http://purl.org/dc/dcmitype/StillImage" />
        <dc:title></dc:title>
      </cc:Work>
    </rdf:RDF>
  </metadata>
  <g
     inkscape:label="Layer 1"
     inkscape:groupmode="layer"
     id="layer1"
     transform="translate(0,-924.36218)">
    <path
       sodipodi:type="arc"
       style="fill:#cccccc"
       id="path2985"
       sodipodi:cx="8"
       sodipodi:cy="7.5714283"
       sodipodi:rx="8"
       sodipodi:ry="7.5714283"
       d="m 16,7.5714283 a 8,7.5714283 0 1 1 -16,0 8,7.5714283 0 1 1 16,0 z"
       transform="matrix(0.95958345,0,0,1.0103618,0.40178572,924.49929)" />
    <path
       sodipodi:type="arc"
       style="fill:#cccccc"
       id="path2985-1"
       sodipodi:cx="8"
       sodipodi:cy="7.5714283"
       sodipodi:rx="8"
       sodipodi:ry="7.5714283"
       d="m 16,7.5714283 a 8,7.5714283 0 1 1 -16,0 8,7.5714283 0 1 1 16,0 z"
       transform="matrix(0.96209322,0,0,1.0117925,0.38202497,1036.9336)" />
    <rect
       style="fill:#cccccc"
       id="rect3021"
       width="15.370729"
       height="113.13708"
       x="0.37885836"
       y="932.02155"
       transform="matrix(0.99986502,0.01642981,0,1,0,0)" />
    <path
       style="fill:#e6e6e6"
       d="m 4.2857142,937.72751 c 0,0.32709 -0.021745,85.15999 -0.033347,85.83159 -0.011635,0.6735 -0.6908419,0.6323 -0.6908419,0.6323 -0.031718,0 -0.8556408,-0.075 -0.8573451,-0.5497 -0.00148,-0.4117 -0.025609,-85.58949 -0.025609,-85.91419 0,-0.3497 0.3597711,-0.63319 0.8035714,-0.63319 0.4438002,0 0.8035714,0.28349 0.8035721,0.63319 z"
       id="path3023"
       inkscape:connector-curvature="0"
       sodipodi:nodetypes="sssssss" />
  </g>
</svg>
